<!DOCTYPE svg PUBLIC "-//W3C//DTD SVG 1.1//EN" "http://www.w3.org/Graphics/SVG/1.1/DTD/svg11.dtd">
<!-- Uploaded to: SVG Repo, www.svgrepo.com, Transformed by: SVG Repo Mixer Tools -->
<svg fill="#170048e0" width="800px" height="800px" viewBox="0 0 512 512" id="_x30_1" version="1.1" xml:space="preserve" xmlns="http://www.w3.org/2000/svg" xmlns:xlink="http://www.w3.org/1999/xlink">
<g id="SVGRepo_bgCarrier" stroke-width="0"/>
<g id="SVGRepo_tracerCarrier" stroke-linecap="round" stroke-linejoin="round"/>
<g id="SVGRepo_iconCarrier"> <g> <path d="M256,36C143.903,36,55.019,144.529,18.291,197.539C6.389,214.716,0,235.102,0,256v0c0,20.898,6.389,41.284,18.291,58.461 C55.019,367.471,143.903,476,256,476s200.981-108.529,237.709-161.539C505.611,297.284,512,276.898,512,256v0 c0-20.898-6.389-41.284-18.291-58.461C456.981,144.529,368.097,36,256,36z M256,396c-77.196,0-140-62.804-140-140 s62.804-140,140-140s140,62.804,140,140S333.196,396,256,396z"/> <circle cx="256" cy="256" r="80"/> </g> </g>
</svg>