<!DOCTYPE svg PUBLIC "-//W3C//DTD SVG 1.1//EN" "http://www.w3.org/Graphics/SVG/1.1/DTD/svg11.dtd">
<!-- Uploaded to: SVG Repo, www.svgrepo.com, Transformed by: SVG Repo Mixer Tools -->
<svg width="64px" height="64px" viewBox="0 0 24 24" fill="none" xmlns="http://www.w3.org/2000/svg" transform="rotate(0)">
<g id="SVGRepo_bgCarrier" stroke-width="0"/>
<g id="SVGRepo_tracerCarrier" stroke-linecap="round" stroke-linejoin="round" stroke="#CCCCCC" stroke-width="1.8719999999999999"> <path fill-rule="evenodd" clip-rule="evenodd" d="M15.6508 4.24075C16.0701 4.60017 16.1187 5.23147 15.7593 5.65079L10.3171 12L15.7593 18.3492C16.1187 18.7685 16.0701 19.3998 15.6508 19.7593C15.2315 20.1187 14.6002 20.0701 14.2407 19.6508L8.24074 12.6508C7.91975 12.2763 7.91975 11.7237 8.24074 11.3492L14.2407 4.34921C14.6002 3.92989 15.2315 3.88132 15.6508 4.24075Z" fill="#3d3d3d"/> </g>
<g id="SVGRepo_iconCarrier"> <path fill-rule="evenodd" clip-rule="evenodd" d="M15.6508 4.24075C16.0701 4.60017 16.1187 5.23147 15.7593 5.65079L10.3171 12L15.7593 18.3492C16.1187 18.7685 16.0701 19.3998 15.6508 19.7593C15.2315 20.1187 14.6002 20.0701 14.2407 19.6508L8.24074 12.6508C7.91975 12.2763 7.91975 11.7237 8.24074 11.3492L14.2407 4.34921C14.6002 3.92989 15.2315 3.88132 15.6508 4.24075Z" fill="#3d3d3d"/> </g>
</svg>