<!DOCTYPE svg PUBLIC "-//W3C//DTD SVG 1.1//EN" "http://www.w3.org/Graphics/SVG/1.1/DTD/svg11.dtd">

<!-- Uploaded to: SVG Repo, www.svgrepo.com, Transformed by: SVG Repo Mixer Tools -->
<svg fill="#3d3d3d" width="24px" height="24px" viewBox="0 0 24.00 24.00" xmlns="http://www.w3.org/2000/svg" data-name="Layer 1" stroke="#3d3d3d" stroke-width="0.00024000000000000003" transform="rotate(0)">

<g id="SVGRepo_bgCarrier" stroke-width="0" transform="translate(1.1999999999999993,1.1999999999999993), scale(0.9)"/>

<g id="SVGRepo_tracerCarrier" stroke-linecap="round" stroke-linejoin="round" stroke="#CCCCCC" stroke-width="0.192"/>

<g id="SVGRepo_iconCarrier">

<path d="M18.42,8.22A7,7,0,0,0,5.06,10.11,4,4,0,0,0,6,18a1,1,0,0,0,0-2,2,2,0,0,1,0-4,1,1,0,0,0,1-1,5,5,0,0,1,9.73-1.61,1,1,0,0,0,.78.67,3,3,0,0,1,.24,5.84,1,1,0,0,0,.5,1.94,5,5,0,0,0,.17-9.62Zm-3.71,6.07a1,1,0,0,0-1.42,0L12,15.59l-1.29-1.3a1,1,0,0,0-1.42,1.42L10.59,17l-1.3,1.29a1,1,0,0,0,0,1.42,1,1,0,0,0,1.42,0L12,18.41l1.29,1.3a1,1,0,0,0,1.42,0,1,1,0,0,0,0-1.42L13.41,17l1.3-1.29A1,1,0,0,0,14.71,14.29Z"/>

</g>

</svg>